<svg width="817" height="142" viewBox="0 0 817 142" fill="none" xmlns="http://www.w3.org/2000/svg">
<path d="M577.994 16.5507L358.751 35.732C350.619 36.4434 344.604 43.6122 345.316 51.7439L350.492 110.908C351.203 119.04 358.372 125.055 366.504 124.343L585.746 105.162C593.878 104.451 599.893 97.282 599.182 89.1503L594.006 29.9863C593.294 21.8546 586.125 15.8393 577.994 16.5507Z" fill="#FF8714"/>
<path d="M368.91 107.01L364.11 52.1601L401.66 48.8701L402.53 58.8101L376.39 61.1001L377.61 75.0201L400.07 73.0601L400.94 83.0001L378.48 84.9601L380.32 106.02L368.91 107.02V107.01Z" fill="white"/>
<path d="M437.69 101.89C433.57 102.25 429.68 101.87 426.02 100.76C422.36 99.6501 419.11 97.9101 416.25 95.5701C413.4 93.2201 411.09 90.4001 409.31 87.0901C407.54 83.7801 406.47 80.1201 406.12 76.0901C405.77 72.0701 406.17 68.2701 407.31 64.7101C408.46 61.1501 410.23 57.9801 412.64 55.1901C415.04 52.4101 417.95 50.1501 421.36 48.4201C424.77 46.6901 428.56 45.6401 432.73 45.2701C436.9 44.9001 440.82 45.2701 444.48 46.3901C448.14 47.5101 451.39 49.2201 454.24 51.5501C457.09 53.8701 459.39 56.6901 461.14 60.0001C462.89 63.3101 463.94 66.9801 464.29 71.0001C464.64 75.0301 464.23 78.8201 463.06 82.3801C461.89 85.9401 460.1 89.1301 457.7 91.9401C455.3 94.7501 452.39 97.0201 448.98 98.7501C445.57 100.48 441.8 101.53 437.68 101.89H437.69ZM436.79 91.5801C439.29 91.3601 441.57 90.7201 443.63 89.6501C445.69 88.5801 447.46 87.1801 448.94 85.4401C450.42 83.7001 451.51 81.6901 452.2 79.4101C452.89 77.1201 453.12 74.6601 452.89 72.0001C452.66 69.3501 452 66.9701 450.93 64.8601C449.86 62.7501 448.44 60.9601 446.68 59.4801C444.92 58.0001 442.93 56.9301 440.72 56.2501C438.51 55.5801 436.15 55.3501 433.65 55.5701C431.15 55.7901 428.87 56.4201 426.81 57.4701C424.75 58.5201 422.98 59.9201 421.5 61.6801C420.02 63.4401 418.94 65.4501 418.24 67.7101C417.55 69.9701 417.32 72.4301 417.55 75.0801C417.78 77.7301 418.44 80.1201 419.51 82.2501C420.59 84.3801 422.01 86.1701 423.76 87.6301C425.52 89.0801 427.51 90.1601 429.72 90.8601C431.93 91.5601 434.29 91.8001 436.79 91.5801Z" fill="white"/>
<path d="M500.281 96.41C496.161 96.77 492.271 96.39 488.611 95.28C484.951 94.17 481.701 92.43 478.841 90.09C475.991 87.74 473.681 84.92 471.901 81.61C470.131 78.3 469.061 74.64 468.711 70.61C468.361 66.59 468.761 62.79 469.901 59.23C471.051 55.67 472.821 52.5 475.231 49.71C477.631 46.93 480.541 44.67 483.951 42.94C487.361 41.21 491.151 40.16 495.321 39.79C499.491 39.43 503.411 39.79 507.071 40.91C510.731 42.03 513.981 43.74 516.831 46.07C519.681 48.39 521.981 51.21 523.731 54.52C525.481 57.83 526.531 61.5 526.881 65.52C527.231 69.55 526.821 73.34 525.651 76.9C524.481 80.47 522.691 83.65 520.291 86.46C517.891 89.27 514.981 91.54 511.571 93.27C508.161 95 504.391 96.05 500.271 96.41H500.281ZM499.381 86.1C501.881 85.88 504.161 85.24 506.221 84.17C508.281 83.1 510.051 81.7 511.531 79.96C513.011 78.22 514.101 76.21 514.791 73.93C515.481 71.64 515.711 69.18 515.481 66.52C515.251 63.87 514.591 61.49 513.521 59.38C512.451 57.27 511.031 55.48 509.271 54C507.511 52.52 505.521 51.45 503.311 50.77C501.101 50.1 498.741 49.87 496.241 50.09C493.741 50.31 491.451 50.94 489.391 51.99C487.331 53.04 485.561 54.44 484.081 56.2C482.601 57.96 481.521 59.97 480.821 62.23C480.131 64.49 479.901 66.95 480.131 69.6C480.361 72.25 481.021 74.64 482.091 76.77C483.171 78.9 484.591 80.69 486.341 82.15C488.101 83.6 490.091 84.68 492.301 85.38C494.511 86.08 496.871 86.32 499.371 86.1H499.381Z" fill="white"/>
<path d="M535.98 92.4001L531.18 37.5501L549.07 35.9801C555.01 35.4601 560.27 36.1901 564.84 38.1601C569.41 40.1301 573.08 43.0801 575.85 46.9901C578.61 50.9001 580.23 55.5101 580.69 60.8101C581.15 66.1101 580.36 70.9401 578.32 75.3001C576.28 79.6601 573.17 83.2101 569.01 85.9501C564.85 88.6901 559.8 90.3201 553.86 90.8401L535.97 92.4101L535.98 92.4001ZM546.52 81.4601L553.29 80.8701C556.87 80.5601 559.9 79.5601 562.38 77.8901C564.85 76.2101 566.7 74.0001 567.92 71.2501C569.14 68.5001 569.59 65.3501 569.28 61.8201C568.97 58.2401 567.97 55.2101 566.3 52.7301C564.62 50.2601 562.42 48.4201 559.7 47.2201C556.97 46.0201 553.82 45.5801 550.24 45.9001L543.47 46.4901L546.53 81.4601H546.52Z" fill="white"/>
<path d="M639.29 30.95C635.56 30.95 632.33 31.63 629.58 32.99C626.83 34.35 624.72 36.32 623.24 38.89C621.76 41.46 621.02 44.61 621.02 48.34V49.85H612.51V60.2299H621.02V98.1H632.64V60.2299H643.37V49.85H632.64V48.34C632.64 45.86 633.35 44.04 634.77 42.89C636.19 41.74 638.2 41.16 640.8 41.16C641.21 41.16 641.67 41.18 642.17 41.2C642.67 41.23 643.22 41.3 643.81 41.42V31.3999C643.22 31.2799 642.49 31.18 641.64 31.09C640.78 31 640 30.9599 639.29 30.9599V30.95Z" fill="white"/>
<path d="M677.77 50.9499C674.75 49.4999 671.26 48.7799 667.3 48.7799C664.05 48.7799 661.03 49.3099 658.25 50.3799C655.47 51.4399 653.06 52.9099 651.02 54.7699C648.98 56.6299 647.49 58.8399 646.54 61.3799L656.03 65.9899C656.92 63.8599 658.32 62.1199 660.24 60.7599C662.16 59.3999 664.36 58.7199 666.85 58.7199C669.51 58.7199 671.64 59.4199 673.24 60.7999C674.84 62.1899 675.63 63.9199 675.63 65.9899V67.5499L661.35 69.8899C657.56 70.4799 654.43 71.4899 651.95 72.9099C649.47 74.3299 647.62 76.0899 646.41 78.1899C645.2 80.2899 644.59 82.6699 644.59 85.3299C644.59 87.9899 645.27 90.5499 646.63 92.6499C647.99 94.7499 649.93 96.3599 652.44 97.4799C654.95 98.5999 657.89 99.1699 661.27 99.1699C663.93 99.1699 666.34 98.8199 668.5 98.1099C670.66 97.3999 672.61 96.3399 674.35 94.9199C675.06 94.3399 675.72 93.6999 676.35 93.0299V98.1199H687.35V66.0099C687.35 62.6399 686.51 59.6499 684.82 57.0499C683.13 54.4499 680.78 52.4199 677.77 50.9699V50.9499ZM674.13 84.4299C673.12 86.2599 671.69 87.6999 669.83 88.7299C667.97 89.7699 665.82 90.2799 663.4 90.2799C661.51 90.2799 659.93 89.7899 658.65 88.8199C657.38 87.8399 656.74 86.5299 656.74 84.8699C656.74 83.2099 657.3 81.7799 658.43 80.7499C659.55 79.7199 661.27 78.9899 663.57 78.5799L675.63 76.4399V78.4899C675.63 80.6199 675.13 82.5999 674.12 84.4299H674.13Z" fill="white"/>
<path d="M711.98 61.3299C713.96 60.1199 716.22 59.5099 718.77 59.5099C721.49 59.5099 723.9 60.2299 726 61.6799C728.1 63.1299 729.59 65.0899 730.48 67.5799L740.68 63.0599C739.73 60.2199 738.18 57.7399 736.02 55.6099C733.86 53.4799 731.3 51.8099 728.35 50.5999C725.39 49.3899 722.2 48.7799 718.77 48.7799C713.92 48.7799 709.59 49.8699 705.78 52.0599C701.97 54.2499 698.96 57.2299 696.78 61.0199C694.59 64.7999 693.5 69.0899 693.5 73.8799C693.5 78.6699 694.61 82.9699 696.83 86.7799C699.05 90.5899 702.05 93.6099 705.83 95.8299C709.61 98.0499 713.93 99.1599 718.78 99.1599C722.27 99.1599 725.49 98.5499 728.45 97.3399C731.41 96.1299 733.95 94.4399 736.08 92.2799C738.21 90.1199 739.75 87.6799 740.69 84.9599L730.49 80.3499C729.54 82.8299 728.05 84.8099 726.01 86.2899C723.97 87.7699 721.56 88.5099 718.78 88.5099C716.24 88.5099 713.97 87.8899 711.99 86.6499C710.01 85.4099 708.46 83.6899 707.33 81.5099C706.21 79.3199 705.64 76.8099 705.64 73.9699C705.64 71.1299 706.2 68.6899 707.33 66.4799C708.45 64.2599 710 62.5499 711.99 61.3399L711.98 61.3299Z" fill="white"/>
<path d="M771.35 88.43C769.46 88.43 767.9 88.13 766.69 87.54C765.48 86.95 764.59 86.09 764.03 84.97C763.47 83.85 763.19 82.49 763.19 80.89V60.22H774.28V49.84H763.19V38.84H751.48V42.57C751.48 44.94 750.84 46.74 749.57 47.98C748.3 49.22 746.48 49.84 744.12 49.84H743.23V60.22H751.48V81.51C751.48 86.95 752.99 91.16 756 94.15C759.02 97.14 763.24 98.63 768.68 98.63C769.57 98.63 770.54 98.57 771.61 98.45C772.67 98.33 773.62 98.21 774.45 98.1V88.17C773.92 88.23 773.37 88.29 772.81 88.35C772.25 88.41 771.76 88.44 771.35 88.44V88.43Z" fill="white"/>
<path d="M803.96 70.4199L796.24 68.1099C795.12 67.7599 794.13 67.3699 793.27 66.9599C792.41 66.5499 791.75 66.0199 791.27 65.3599C790.8 64.7099 790.56 63.9699 790.56 63.1399C790.56 61.6599 791.12 60.4899 792.25 59.6399C793.37 58.7799 794.91 58.3499 796.86 58.3499C799.28 58.3499 801.47 58.9899 803.42 60.2599C805.37 61.5299 806.76 63.2599 807.59 65.4499L816.46 61.2799C814.98 57.3199 812.5 54.2399 809.01 52.0599C805.52 49.8699 801.5 48.7799 796.95 48.7799C793.46 48.7799 790.37 49.3999 787.68 50.6399C784.99 51.8799 782.89 53.6099 781.38 55.8299C779.87 58.0499 779.12 60.6299 779.12 63.5899C779.12 66.8999 780.17 69.7799 782.27 72.2399C784.37 74.6899 787.43 76.4799 791.45 77.6099L799.34 79.8299C800.4 80.1299 801.35 80.4999 802.18 80.9399C803.01 81.3799 803.67 81.9199 804.18 82.5399C804.68 83.1599 804.93 83.9499 804.93 84.8899C804.93 86.4299 804.31 87.6699 803.07 88.6199C801.83 89.5699 800.17 90.0399 798.1 90.0399C795.38 90.0399 792.91 89.2699 790.69 87.7299C788.47 86.1899 786.74 84.0599 785.5 81.3399L776.72 85.5099C778.2 89.7099 780.84 93.0399 784.66 95.4899C788.47 97.9399 792.95 99.1699 798.1 99.1699C801.77 99.1699 804.96 98.5499 807.68 97.3099C810.4 96.0699 812.53 94.3399 814.07 92.1199C815.61 89.8999 816.38 87.3499 816.38 84.4499C816.38 81.0199 815.3 78.1199 813.14 75.7599C810.98 73.3999 807.92 71.6199 803.96 70.4399V70.4199Z" fill="white"/>
<path d="M160.57 52.06C156.73 49.87 152.41 48.78 147.62 48.78C142.83 48.78 138.6 49.87 134.76 52.06C130.92 54.25 127.84 57.23 125.54 61.02C123.23 64.8 122.08 69.12 122.08 73.97C122.08 78.82 123.23 83.14 125.54 86.92C127.85 90.7 130.93 93.69 134.81 95.88C138.68 98.07 142.95 99.16 147.63 99.16C152.31 99.16 156.65 98.07 160.49 95.88C164.33 93.69 167.41 90.71 169.71 86.92C172.02 83.14 173.17 78.82 173.17 73.97C173.17 69.12 172.03 64.73 169.76 60.98C167.48 57.23 164.42 54.25 160.58 52.07L160.57 52.06ZM159.28 81.46C158.13 83.68 156.56 85.41 154.58 86.65C152.6 87.89 150.28 88.51 147.62 88.51C144.96 88.51 142.71 87.89 140.7 86.65C138.69 85.41 137.11 83.68 135.95 81.46C134.8 79.24 134.22 76.75 134.22 73.97C134.22 71.19 134.8 68.71 135.95 66.52C137.1 64.33 138.68 62.62 140.7 61.38C142.71 60.14 145.02 59.52 147.62 59.52C150.22 59.52 152.6 60.14 154.58 61.38C156.56 62.62 158.13 64.34 159.28 66.52C160.43 68.71 161.01 71.19 161.01 73.97C161.01 76.75 160.43 79.25 159.28 81.46Z" fill="white"/>
<path d="M218.27 52.15C214.6 49.9 210.49 48.78 205.94 48.78C202.22 48.78 198.93 49.5 196.1 50.95C193.83 52.11 191.94 53.65 190.42 55.55V49.84H179.42V115.83H191.13V93.46C192.55 94.97 194.25 96.2 196.23 97.12C199.16 98.48 202.36 99.16 205.85 99.16C210.52 99.16 214.69 98.05 218.36 95.83C222.03 93.61 224.92 90.58 227.05 86.74C229.18 82.9 230.24 78.64 230.24 73.97C230.24 69.3 229.16 64.98 227 61.2C224.84 57.42 221.93 54.4 218.26 52.15H218.27ZM216.41 81.51C215.23 83.7 213.62 85.41 211.58 86.65C209.54 87.89 207.19 88.51 204.53 88.51C201.87 88.51 199.7 87.89 197.66 86.65C195.62 85.41 194.02 83.69 192.87 81.51C191.72 79.32 191.14 76.81 191.14 73.97C191.14 71.13 191.72 68.71 192.87 66.52C194.02 64.33 195.62 62.62 197.66 61.38C199.7 60.14 201.99 59.52 204.53 59.52C207.07 59.52 209.54 60.14 211.58 61.38C213.62 62.62 215.23 64.34 216.41 66.52C217.59 68.71 218.18 71.19 218.18 73.97C218.18 76.75 217.59 79.32 216.41 81.51Z" fill="white"/>
<path d="M275.75 55.79C273.74 53.6 271.3 51.89 268.43 50.65C265.56 49.41 262.24 48.79 258.45 48.79C253.9 48.79 249.82 49.88 246.21 52.07C242.6 54.26 239.74 57.23 237.61 60.98C235.48 64.74 234.42 69.0401 234.42 73.8801C234.42 78.7201 235.45 82.81 237.52 86.65C239.59 90.49 242.5 93.54 246.26 95.79C250.01 98.04 254.38 99.16 259.34 99.16C262.59 99.16 265.61 98.66 268.39 97.65C271.17 96.65 273.56 95.26 275.57 93.48C277.58 91.71 279.06 89.67 280 87.36L270.6 82.75C269.54 84.64 268.07 86.1501 266.21 87.2701C264.35 88.39 262.09 88.96 259.42 88.96C256.75 88.96 254.41 88.3401 252.37 87.1001C250.33 85.8601 248.79 84.1 247.76 81.82C247.14 80.45 246.75 78.96 246.59 77.34H281.33C281.57 76.63 281.73 75.8501 281.82 74.9901C281.91 74.1301 281.95 73.26 281.95 72.37C281.95 69.12 281.42 66.09 280.35 63.28C279.29 60.47 277.75 57.97 275.74 55.79H275.75ZM246.83 68.3801C247.03 67.3601 247.31 66.42 247.68 65.54C248.66 63.23 250.09 61.46 251.98 60.22C253.87 58.98 256.03 58.36 258.45 58.36C260.87 58.36 263.16 58.98 264.97 60.22C266.77 61.46 268.07 63.15 268.87 65.28C269.23 66.25 269.45 67.2901 269.52 68.3801H246.82H246.83Z" fill="white"/>
<path d="M322.48 51.09C319.73 49.55 316.58 48.78 313.03 48.78C309.48 48.78 306.6 49.53 304.03 51.04C302.04 52.2 300.5 53.79 299.37 55.78V49.85H288.37V98.1H300.08V69.81C300.08 67.68 300.49 65.85 301.32 64.31C302.15 62.77 303.3 61.59 304.78 60.76C306.26 59.93 307.94 59.52 309.84 59.52C311.74 59.52 313.42 59.93 314.9 60.76C316.38 61.59 317.53 62.77 318.36 64.31C319.19 65.85 319.6 67.68 319.6 69.81V98.1H331.22V67.06C331.22 63.45 330.45 60.27 328.91 57.53C327.37 54.78 325.23 52.64 322.48 51.1V51.09Z" fill="white"/>
<path d="M0.00976562 73.58C0.00976562 46.53 21.9398 24.6 48.9898 24.6C76.0398 24.6 97.9698 46.53 97.9698 73.58H0.00976562Z" fill="#FF8C14"/>
<path d="M65.5796 44.64C67.0653 44.64 68.2696 43.4357 68.2696 41.95C68.2696 40.4644 67.0653 39.26 65.5796 39.26C64.094 39.26 62.8896 40.4644 62.8896 41.95C62.8896 43.4357 64.094 44.64 65.5796 44.64Z" fill="#8C3C00"/>
<path d="M78.6998 56.6799C80.1854 56.6799 81.3898 55.4756 81.3898 53.9899C81.3898 52.5043 80.1854 51.2999 78.6998 51.2999C77.2141 51.2999 76.0098 52.5043 76.0098 53.9899C76.0098 55.4756 77.2141 56.6799 78.6998 56.6799Z" fill="#8C3C00"/>
<path d="M63.8599 59.63C65.3456 59.63 66.5499 58.4256 66.5499 56.94C66.5499 55.4544 65.3456 54.25 63.8599 54.25C62.3743 54.25 61.1699 55.4544 61.1699 56.94C61.1699 58.4256 62.3743 59.63 63.8599 59.63Z" fill="#8C3C00"/>
<path d="M25.24 116.4L16.54 137.18L27.99 141.98L36.77 121.02C40.68 122.03 44.78 122.57 49 122.57C76.01 122.57 97.98 100.6 97.98 73.59H85.56C85.56 93.75 69.16 110.16 48.99 110.16C28.82 110.16 12.42 93.76 12.42 73.59H0C0 91.98 10.2 108.03 25.23 116.41L25.24 116.4Z" fill="white"/>
<path d="M69.25 0C59.62 0 51.2499 5.37 46.9399 13.27C50.2599 16.35 52.7499 20.3 54.0499 24.77C65.2599 22.25 73.6699 12.35 73.8699 0.43C72.3699 0.15 70.83 0 69.25 0Z" fill="#00641E"/>
<path d="M29.6599 6.46002C27.7499 6.46002 25.8999 6.68002 24.1099 7.07002C27.1799 17.66 36.9399 25.4 48.5099 25.4C50.4199 25.4 52.2699 25.18 54.0599 24.79C50.9899 14.2 41.2299 6.46002 29.6599 6.46002Z" fill="#00961E"/>
</svg>
